<?xml version="1.0" standalone="no"?>
<!DOCTYPE svg PUBLIC "-//W3C//DTD SVG 20010904//EN"
 "http://www.w3.org/TR/2001/REC-SVG-20010904/DTD/svg10.dtd">
<svg version="1.0" xmlns="http://www.w3.org/2000/svg"
 width="225.000000pt" height="225.000000pt" viewBox="0 0 225.000000 225.000000"
 preserveAspectRatio="xMidYMid meet">
<metadata>
Created by potrace 1.11, written by Peter Selinger 2001-2013
</metadata>
<g transform="translate(0.000000,225.000000) scale(0.100000,-0.100000)"
fill="#000000" stroke="none">
<path d="M1840 2223 c-58 -8 -107 -17 -109 -19 -5 -4 148 -231 166 -245 12
-10 251 17 266 31 4 3 -30 61 -75 128 -95 139 -73 130 -248 105z"/>
<path d="M1275 2143 c-55 -9 -102 -17 -103 -18 -3 -3 148 -226 167 -248 6 -6
184 13 258 29 20 4 15 14 -64 129 -99 144 -77 135 -258 108z"/>
<path d="M830 2080 c-25 -4 -84 -13 -133 -20 l-87 -12 86 -127 c48 -69 87
-127 88 -128 2 -3 269 37 272 40 5 4 -170 257 -176 256 -3 -1 -25 -5 -50 -9z"/>
<path d="M182 1990 c-68 -10 -125 -20 -127 -22 -1 -2 6 -59 16 -128 17 -113
19 -196 19 -856 0 -824 -2 -800 73 -881 23 -26 65 -57 92 -69 l50 -24 840 0
840 0 50 24 c65 30 131 104 150 169 13 42 15 145 15 629 l0 578 -70 0 c-38 0
-70 3 -70 8 1 4 31 67 69 140 l67 132 -138 0 -138 0 -70 -140 -70 -140 -140 0
c-77 0 -140 2 -140 5 0 3 29 64 65 135 36 71 65 132 65 135 0 3 -62 5 -138 5
l-138 0 -69 -140 -69 -140 -143 0 -143 0 70 140 70 140 -138 0 -138 0 -69
-140 -69 -140 -143 0 -143 0 70 140 70 140 -203 2 -202 3 194 27 c106 15 196
29 198 32 8 8 -168 256 -180 255 -7 -1 -68 -10 -135 -19z m1878 -1070 l0 -70
-140 0 -140 0 0 -140 0 -140 140 0 141 0 -3 -72 -3 -73 -910 0 -910 0 -3 73
-3 72 141 0 140 0 0 140 0 140 -140 0 -140 0 0 70 0 70 915 0 915 0 0 -70z"/>
<path d="M650 710 l0 -140 495 0 496 0 -3 138 -3 137 -492 3 -493 2 0 -140z"/>
</g>
</svg>
